<svg width="142" height="46" viewBox="0 0 142 46" fill="none" xmlns="http://www.w3.org/2000/svg">
<g clip-path="url(#clip0_659_41590)">
<path d="M4.81563 12.2545L3.1625 10.4576C1.15 13.8716 0 17.8607 0 21.9216H1.15C1.15 18.1123 2.44375 14.6623 4.81563 12.2545Z" fill="#788190"/>
<path d="M4.49219 30.044C2.44375 28.1034 1.15 25.444 1.15 21.9222C1.15 21.9222 1.15 21.9222 1.15 21.8862H0C0 26.019 0.71875 29.8644 2.19219 33.2065L4.49219 30.044Z" fill="#788190"/>
<path d="M40.5734 18.9751L38.4531 21.1314C41.364 21.1673 43.1609 23.4314 43.089 26.3064H44.239C44.239 23.5032 42.9093 20.9157 40.5734 18.9751Z" fill="#788190"/>
<path d="M44.239 26.3425H43.089C43.0171 28.7143 41.7593 30.6909 38.9561 32.1643L41.903 36.2253C43.3765 33.5659 44.239 30.2956 44.239 26.3425Z" fill="#788190"/>
<path d="M6.00158 18.6152C5.92971 19.0464 5.85783 19.5136 5.85783 19.9808C5.85783 26.737 10.8891 31.0495 17.25 31.0495C29.361 31.0495 32.9547 21.1667 38.3453 21.1667C38.3813 21.1667 38.4172 21.1667 38.4172 21.1667L40.5375 19.0105C37.9141 16.8542 34.0328 15.5245 29.325 15.5245C19.7297 15.5245 14.6625 23.5386 10.2781 23.5386C8.37346 23.5386 6.93596 21.4542 6.93596 19.4417C6.93596 19.2261 6.93596 19.0464 6.9719 18.8308L6.00158 18.6152Z" fill="#788190"/>
<path d="M13.4766 8.69688C20.4844 8.69688 25.336 13.9797 31.5532 13.9797C39.0282 13.9797 43.161 10.35 44.2032 3.19844L43.0532 3.01875C42.7657 4.92344 41.5438 7.1875 39.3516 7.1875C37.2672 7.1875 35.075 5.35469 31.8406 3.59375C28.6422 1.76094 24.9406 0 20.3406 0C12.9375 0 6.72033 4.34844 3.16252 10.4219L4.81565 12.2188C6.93596 10.0266 9.88284 8.69688 13.4766 8.69688Z" fill="#788190"/>
<path d="M20.8079 35.0028C15.3813 35.0028 8.55318 33.8169 4.52818 30.0434L2.19224 33.2419C5.53443 40.9325 12.6501 45.9997 23.3235 45.9997C30.3672 45.9997 38.1657 43.1965 41.9391 36.2247L38.9922 32.1637C35.5063 33.9606 29.6485 35.0028 20.8079 35.0028Z" fill="#788190"/>
<path d="M62.8182 34.3944C55.8104 34.3944 51.9291 29.7944 51.9291 22.9663C51.9291 16.1381 56.1338 11.5022 62.926 11.5022C65.6573 11.5022 67.9213 12.1491 69.6823 13.1194L68.9635 17.8991C67.3104 16.8569 65.3338 15.9944 63.0698 15.9944C59.2604 15.9944 57.3916 18.7975 57.3916 22.9303C57.3916 27.0991 59.2963 30.01 63.1057 30.01C64.3276 30.01 65.1901 29.7944 66.0885 29.2913V25.3741H62.2432L61.5963 21.3131H70.8323V32.0584C68.5682 33.5678 65.8369 34.3944 62.8182 34.3944Z" fill="#788190"/>
<path d="M81.362 34.2511C78.3791 34.2511 75.8995 33.6042 73.6713 32.598L74.462 27.9261C76.726 29.148 79.2776 29.9746 81.4698 29.9746C83.051 29.9746 84.1291 29.2917 84.1291 27.998C84.1291 26.7402 83.4823 26.1652 80.3916 24.9792C75.9713 23.2902 74.0666 21.8527 74.0666 18.1871C74.0666 13.9464 77.4088 11.6824 81.6135 11.6824C84.4885 11.6824 86.3573 12.2214 88.262 13.1558L87.4354 17.7558C85.4588 16.6058 83.3745 15.9589 81.6854 15.9589C80.0323 15.9589 79.2057 16.6417 79.2057 17.6839C79.2057 18.798 79.8166 19.3371 82.5479 20.4152C87.3276 22.1761 89.2682 23.8292 89.2682 27.3511C89.2682 32.1308 85.7463 34.2511 81.362 34.2511Z" fill="#788190"/>
<path d="M97.6788 33.9242V11.9305H109.179V13.907H99.9069V21.4539H107.238L107.562 23.4305H99.9069V31.9836H109.502V33.9601H97.6788V33.9242Z" fill="#788190"/>
<path d="M118.703 24.6523H115.971V33.9242H113.779V11.9305H119.242C123.662 11.9305 126.465 14.1586 126.465 18.1117C126.393 22.4601 123.195 24.6523 118.703 24.6523ZM119.026 13.8711H115.935V22.7117H118.775C122.117 22.7117 124.165 21.2383 124.165 18.1836C124.165 15.3445 122.404 13.8711 119.026 13.8711Z" fill="#788190"/>
<path d="M134.766 34.2119C132.323 34.2119 130.346 33.6009 128.944 32.8462L129.268 30.6181C130.598 31.4806 132.646 32.2712 134.874 32.2712C137.462 32.2712 139.402 30.7978 139.402 28.3181C139.402 26.1619 138.324 25.0478 134.982 23.6103C130.777 21.7775 129.232 20.34 129.232 17.2134C129.232 13.9072 131.927 11.679 135.557 11.679C137.641 11.679 139.258 12.1462 140.408 12.829L140.085 15.0212C138.827 14.1947 137.318 13.6197 135.449 13.6197C132.862 13.6197 131.424 15.165 131.424 17.0697C131.424 19.0822 132.466 20.0525 135.844 21.5259C139.941 23.3228 141.594 24.904 141.594 28.1384C141.594 31.9119 138.612 34.2119 134.766 34.2119Z" fill="#788190"/>
<path d="M62.8219 34.3884C55.8141 34.3884 51.9329 29.7884 51.9329 22.9603C51.9329 16.1321 56.1376 11.4962 62.9298 11.4962C65.661 11.4962 67.9251 12.1431 69.686 13.1134L68.9673 17.8931C67.3141 16.8509 65.3376 15.9884 63.0735 15.9884C59.2641 15.9884 57.3954 18.7915 57.3954 22.9243C57.3954 27.0931 59.3001 30.004 63.1094 30.004C64.3313 30.004 65.1938 29.7884 66.0923 29.2853V25.3681H62.2469L61.6001 21.3071H70.836V32.0525C68.5719 33.5618 65.8407 34.3884 62.8219 34.3884Z" fill="#788190"/>
<path d="M81.3657 34.2446C78.3829 34.2446 75.9032 33.5978 73.6751 32.5915L74.4657 27.9196C76.7298 29.1415 79.2813 29.9681 81.4735 29.9681C83.0548 29.9681 84.1329 29.2853 84.1329 27.9915C84.1329 26.7337 83.486 26.1587 80.3954 24.9728C75.9751 23.2837 74.0704 21.8462 74.0704 18.1806C74.0704 13.94 77.4126 11.6759 81.6173 11.6759C84.4923 11.6759 86.361 12.215 88.2657 13.1493L87.4391 17.7493C85.4626 16.5993 83.3782 15.9525 81.6891 15.9525C80.036 15.9525 79.2094 16.6353 79.2094 17.6775C79.2094 18.7915 79.8204 19.3306 82.5516 20.4087C87.3313 22.1696 89.2719 23.8228 89.2719 27.3446C89.2719 32.1243 85.7501 34.2446 81.3657 34.2446Z" fill="#788190"/>
<path d="M97.6782 33.9238V11.9301H109.178V13.9067H99.9063V21.4535H107.238L107.561 23.4301H99.9063V31.9832H109.502V33.9598H97.6782V33.9238Z" fill="#788190"/>
<path d="M118.702 24.652H115.97V33.9238H113.778V11.9301H119.241C123.661 11.9301 126.464 14.1582 126.464 18.1113C126.392 22.4598 123.194 24.652 118.702 24.652ZM119.025 13.8707H115.934V22.7113H118.773C122.116 22.7113 124.164 21.2379 124.164 18.1832C124.164 15.3442 122.403 13.8707 119.025 13.8707Z" fill="#788190"/>
<path d="M134.766 34.2113C132.322 34.2113 130.345 33.6004 128.944 32.8457L129.267 30.6176C130.597 31.4801 132.645 32.2707 134.873 32.2707C137.461 32.2707 139.402 30.7973 139.402 28.3176C139.402 26.1613 138.323 25.0473 134.981 23.6098C130.777 21.777 129.231 20.3395 129.231 17.2129C129.231 13.9067 131.927 11.6785 135.556 11.6785C137.641 11.6785 139.258 12.1457 140.408 12.8285L140.084 15.0207C138.827 14.1942 137.317 13.6192 135.448 13.6192C132.861 13.6192 131.423 15.1645 131.423 17.0692C131.423 19.0817 132.466 20.052 135.844 21.5254C139.941 23.3223 141.594 24.9035 141.594 28.1379C141.594 31.9113 138.611 34.2113 134.766 34.2113Z" fill="#788190"/>
</g>
<defs>
<clipPath id="clip0_659_41590">
<rect width="142" height="46" fill="white"/>
</clipPath>
</defs>
</svg>
