<svg width="142" height="46" viewBox="0 0 142 46" fill="none" xmlns="http://www.w3.org/2000/svg">
<g clip-path="url(#clip0_5685_21676)">
<path d="M4.81563 12.2544L3.1625 10.4575C1.15 13.8716 0 17.8606 0 21.9216H1.15C1.15 18.1122 2.44375 14.6622 4.81563 12.2544Z" fill="white"/>
<path d="M4.49219 30.044C2.44375 28.1034 1.15 25.444 1.15 21.9222C1.15 21.9222 1.15 21.9222 1.15 21.8862H0C0 26.019 0.71875 29.8644 2.19219 33.2065L4.49219 30.044Z" fill="white"/>
<path d="M40.5734 18.9751L38.4531 21.1313C41.3641 21.1673 43.1609 23.4313 43.0891 26.3063H44.2391C44.2391 23.5032 42.9094 20.9157 40.5734 18.9751Z" fill="white"/>
<path d="M44.239 26.3425H43.089C43.0171 28.7144 41.7593 30.691 38.9562 32.1644L41.9031 36.2253C43.3765 33.566 44.239 30.2957 44.239 26.3425Z" fill="white"/>
<path d="M6.00154 18.615C5.92966 19.0463 5.85779 19.5135 5.85779 19.9807C5.85779 26.7369 10.889 31.0494 17.25 31.0494C29.3609 31.0494 32.9547 21.1666 38.3453 21.1666C38.3812 21.1666 38.4172 21.1666 38.4172 21.1666L40.5375 19.0104C37.914 16.8541 34.0328 15.5244 29.325 15.5244C19.7297 15.5244 14.6625 23.5385 10.2781 23.5385C8.37341 23.5385 6.93591 21.4541 6.93591 19.4416C6.93591 19.226 6.93591 19.0463 6.97185 18.8307L6.00154 18.615Z" fill="white"/>
<path d="M13.4765 8.69688C20.4844 8.69688 25.3359 13.9797 31.5531 13.9797C39.0281 13.9797 43.1609 10.35 44.2031 3.19844L43.0531 3.01875C42.7656 4.92344 41.5437 7.1875 39.3515 7.1875C37.2672 7.1875 35.075 5.35469 31.8406 3.59375C28.6422 1.76094 24.9406 0 20.3406 0C12.9375 0 6.72029 4.34844 3.16248 10.4219L4.8156 12.2188C6.93591 10.0266 9.88279 8.69688 13.4765 8.69688Z" fill="white"/>
<path d="M20.8079 35.0028C15.3813 35.0028 8.5532 33.8169 4.5282 30.0435L2.19226 33.2419C5.53445 40.9325 12.6501 45.9997 23.3235 45.9997C30.3673 45.9997 38.1657 43.1966 41.9391 36.2247L38.9923 32.1638C35.5063 33.9606 29.6485 35.0028 20.8079 35.0028Z" fill="white"/>
<path d="M62.8181 34.3944C55.8103 34.3944 51.9291 29.7944 51.9291 22.9663C51.9291 16.1381 56.1338 11.5022 62.926 11.5022C65.6572 11.5022 67.9213 12.1491 69.6822 13.1194L68.9635 17.8991C67.3103 16.8569 65.3338 15.9944 63.0697 15.9944C59.2603 15.9944 57.3916 18.7975 57.3916 22.9303C57.3916 27.0991 59.2963 30.01 63.1056 30.01C64.3275 30.01 65.19 29.7944 66.0885 29.2913V25.3741H62.2431L61.5963 21.3131H70.8322V32.0584C68.5681 33.5678 65.8369 34.3944 62.8181 34.3944Z" fill="white"/>
<path d="M81.3619 34.2511C78.3791 34.2511 75.8994 33.6042 73.6713 32.598L74.4619 27.9261C76.726 29.148 79.2775 29.9746 81.4697 29.9746C83.051 29.9746 84.1291 29.2917 84.1291 27.998C84.1291 26.7402 83.4822 26.1652 80.3916 24.9792C75.9713 23.2902 74.0666 21.8527 74.0666 18.1871C74.0666 13.9464 77.4088 11.6824 81.6135 11.6824C84.4885 11.6824 86.3572 12.2214 88.2619 13.1558L87.4353 17.7558C85.4588 16.6058 83.3744 15.9589 81.6853 15.9589C80.0322 15.9589 79.2056 16.6417 79.2056 17.6839C79.2056 18.798 79.8166 19.3371 82.5478 20.4152C87.3275 22.1761 89.2681 23.8292 89.2681 27.3511C89.2681 32.1308 85.7463 34.2511 81.3619 34.2511Z" fill="white"/>
<path d="M97.6787 33.9242V11.9304H109.179V13.907H99.9068V21.4539H107.238L107.562 23.4304H99.9068V31.9835H109.502V33.9601H97.6787V33.9242Z" fill="white"/>
<path d="M118.703 24.6523H115.971V33.9242H113.779V11.9304H119.242C123.662 11.9304 126.465 14.1585 126.465 18.1117C126.393 22.4601 123.195 24.6523 118.703 24.6523ZM119.026 13.871H115.935V22.7117H118.774C122.117 22.7117 124.165 21.2382 124.165 18.1835C124.165 15.3445 122.404 13.871 119.026 13.871Z" fill="white"/>
<path d="M134.766 34.2118C132.322 34.2118 130.346 33.6008 128.944 32.8461L129.268 30.618C130.597 31.4805 132.646 32.2711 134.874 32.2711C137.462 32.2711 139.402 30.7977 139.402 28.318C139.402 26.1618 138.324 25.0477 134.982 23.6102C130.777 21.7774 129.232 20.3399 129.232 17.2133C129.232 13.9071 131.927 11.679 135.557 11.679C137.641 11.679 139.258 12.1461 140.408 12.829L140.085 15.0211C138.827 14.1946 137.318 13.6196 135.449 13.6196C132.862 13.6196 131.424 15.1649 131.424 17.0696C131.424 19.0821 132.466 20.0524 135.844 21.5258C139.941 23.3227 141.594 24.904 141.594 28.1383C141.594 31.9118 138.612 34.2118 134.766 34.2118Z" fill="white"/>
<g clip-path="url(#clip1_5685_21676)">
<path d="M4.81563 12.2546L3.1625 10.4578C1.15 13.8718 0 17.8609 0 21.9218H1.15C1.15 18.1125 2.44375 14.6625 4.81563 12.2546Z" fill="url(#paint0_linear_5685_21676)"/>
<path d="M4.49219 30.0438C2.44375 28.1032 1.15 25.4438 1.15 21.9219C1.15 21.9219 1.15 21.9219 1.15 21.886H0C0 26.0188 0.71875 29.8641 2.19219 33.2063L4.49219 30.0438Z" fill="url(#paint1_linear_5685_21676)"/>
<path d="M40.5734 18.9751L38.4531 21.1313C41.3641 21.1673 43.1609 23.4313 43.0891 26.3063H44.2391C44.2391 23.5032 42.9094 20.9157 40.5734 18.9751Z" fill="url(#paint2_linear_5685_21676)"/>
<path d="M44.2391 26.3423H43.0891C43.0172 28.7142 41.7594 30.6907 38.9563 32.1642L41.9032 36.2251C43.3766 33.5657 44.2391 30.2954 44.2391 26.3423Z" fill="url(#paint3_linear_5685_21676)"/>
<path d="M6.00154 18.6155C5.92966 19.0468 5.85779 19.514 5.85779 19.9812C5.85779 26.7374 10.889 31.0499 17.25 31.0499C29.3609 31.0499 32.9547 21.1671 38.3453 21.1671C38.3812 21.1671 38.4172 21.1671 38.4172 21.1671L40.5375 19.0108C37.914 16.8546 34.0328 15.5249 29.325 15.5249C19.7297 15.5249 14.6625 23.539 10.2781 23.539C8.37341 23.539 6.93591 21.4546 6.93591 19.4421C6.93591 19.2265 6.93591 19.0468 6.97185 18.8312L6.00154 18.6155Z" fill="url(#paint4_linear_5685_21676)"/>
<path d="M13.4765 8.69688C20.4844 8.69688 25.3359 13.9797 31.5531 13.9797C39.0281 13.9797 43.1609 10.35 44.2031 3.19844L43.0531 3.01875C42.7656 4.92344 41.5437 7.1875 39.3515 7.1875C37.2672 7.1875 35.075 5.35469 31.8406 3.59375C28.6422 1.76094 24.9406 0 20.3406 0C12.9375 0 6.72029 4.34844 3.16248 10.4219L4.8156 12.2188C6.93591 10.0266 9.88279 8.69688 13.4765 8.69688Z" fill="url(#paint5_linear_5685_21676)"/>
<path d="M20.8078 35.0031C15.3812 35.0031 8.55308 33.8171 4.52808 30.0437L2.19214 33.2421C5.53433 40.9328 12.65 46 23.3234 46C30.3671 46 38.1656 43.1968 41.939 36.225L38.9921 32.164C35.5062 33.9609 29.6484 35.0031 20.8078 35.0031Z" fill="url(#paint6_linear_5685_21676)"/>
<path d="M62.8219 34.3883C55.8141 34.3883 51.9329 29.7883 51.9329 22.9602C51.9329 16.132 56.1376 11.4961 62.9297 11.4961C65.661 11.4961 67.925 12.143 69.686 13.1133L68.9672 17.893C67.3141 16.8508 65.3375 15.9883 63.0735 15.9883C59.2641 15.9883 57.3954 18.7914 57.3954 22.9242C57.3954 27.093 59.3001 30.0039 63.1094 30.0039C64.3313 30.0039 65.1938 29.7883 66.0922 29.2852V25.368H62.2469L61.6 21.307H70.836V32.0523C68.5719 33.5617 65.8407 34.3883 62.8219 34.3883Z" fill="#3366CC"/>
<path d="M81.3657 34.2445C78.3829 34.2445 75.9032 33.5977 73.675 32.5914L74.4657 27.9195C76.7297 29.1414 79.2813 29.968 81.4735 29.968C83.0547 29.968 84.1329 29.2852 84.1329 27.9914C84.1329 26.7336 83.486 26.1586 80.3954 24.9727C75.975 23.2836 74.0704 21.8461 74.0704 18.1805C74.0704 13.9398 77.4126 11.6758 81.6172 11.6758C84.4922 11.6758 86.361 12.2148 88.2657 13.1492L87.4391 17.7492C85.4626 16.5992 83.3782 15.9523 81.6891 15.9523C80.036 15.9523 79.2094 16.6352 79.2094 17.6773C79.2094 18.7914 79.8204 19.3305 82.5516 20.4086C87.3313 22.1695 89.2719 23.8227 89.2719 27.3445C89.2719 32.1242 85.75 34.2445 81.3657 34.2445Z" fill="#3366CC"/>
<path d="M97.6781 33.9237V11.9299H109.178V13.9065H99.9062V21.4534H107.237L107.561 23.4299H99.9062V31.9831H109.502V33.9596H97.6781V33.9237Z" fill="#999999"/>
<path d="M118.702 24.6518H115.97V33.9237H113.778V11.9299H119.241C123.661 11.9299 126.464 14.1581 126.464 18.1112C126.392 22.4596 123.194 24.6518 118.702 24.6518ZM119.025 13.8706H115.934V22.7112H118.773C122.116 22.7112 124.164 21.2377 124.164 18.1831C124.164 15.344 122.403 13.8706 119.025 13.8706Z" fill="#999999"/>
<path d="M134.766 34.2113C132.322 34.2113 130.345 33.6003 128.944 32.8457L129.267 30.6175C130.597 31.48 132.645 32.2707 134.873 32.2707C137.461 32.2707 139.402 30.7972 139.402 28.3175C139.402 26.1613 138.323 25.0472 134.981 23.6097C130.777 21.7769 129.231 20.3394 129.231 17.2128C129.231 13.9066 131.927 11.6785 135.556 11.6785C137.641 11.6785 139.258 12.1457 140.408 12.8285L140.084 15.0207C138.827 14.1941 137.317 13.6191 135.448 13.6191C132.861 13.6191 131.423 15.1644 131.423 17.0691C131.423 19.0816 132.466 20.0519 135.844 21.5253C139.941 23.3222 141.594 24.9035 141.594 28.1378C141.594 31.9113 138.611 34.2113 134.766 34.2113Z" fill="#999999"/>
</g>
</g>
<defs>
<linearGradient id="paint0_linear_5685_21676" x1="5.4579" y1="12.8603" x2="-1.25598" y2="19.5742" gradientUnits="userSpaceOnUse">
<stop stop-color="#FABE00"/>
<stop offset="1" stop-color="#C8C400"/>
</linearGradient>
<linearGradient id="paint1_linear_5685_21676" x1="-1.43286" y1="24.4752" x2="4.32245" y2="30.2306" gradientUnits="userSpaceOnUse">
<stop stop-color="#C8C400"/>
<stop offset="1" stop-color="#7FBE26"/>
</linearGradient>
<linearGradient id="paint2_linear_5685_21676" x1="39.3996" y1="20.1895" x2="44.2933" y2="25.0832" gradientUnits="userSpaceOnUse">
<stop stop-color="#7ECEF4"/>
<stop offset="1" stop-color="#00B3C4"/>
</linearGradient>
<linearGradient id="paint3_linear_5685_21676" x1="45.2634" y1="28.5205" x2="40.3181" y2="33.4657" gradientUnits="userSpaceOnUse">
<stop stop-color="#00B3C4"/>
<stop offset="1" stop-color="#009E96"/>
</linearGradient>
<linearGradient id="paint4_linear_5685_21676" x1="8.29345" y1="23.2688" x2="38.3733" y2="23.2688" gradientUnits="userSpaceOnUse">
<stop stop-color="#0068B7"/>
<stop offset="1" stop-color="#7ECEF4"/>
</linearGradient>
<linearGradient id="paint5_linear_5685_21676" x1="3.1582" y1="6.98913" x2="44.2294" y2="6.98913" gradientUnits="userSpaceOnUse">
<stop stop-color="#FABE00"/>
<stop offset="0.0391659" stop-color="#F9BB00"/>
<stop offset="0.6977" stop-color="#EF7C00"/>
<stop offset="1" stop-color="#EB6101"/>
</linearGradient>
<linearGradient id="paint6_linear_5685_21676" x1="4.51083" y1="38.0062" x2="38.9821" y2="38.0062" gradientUnits="userSpaceOnUse">
<stop stop-color="#7FBE26"/>
<stop offset="1" stop-color="#009E96"/>
</linearGradient>
<clipPath id="clip0_5685_21676">
<rect width="142" height="46" fill="white"/>
</clipPath>
<clipPath id="clip1_5685_21676">
<rect width="142" height="46" fill="white"/>
</clipPath>
</defs>
</svg>
