<svg width="85" height="85" viewBox="0 0 85 85" fill="none" xmlns="http://www.w3.org/2000/svg">
<path d="M42.9827 42.4063L33.5347 32.346C30.9312 29.5741 27.2879 28 23.4735 28C15.4792 28 9 34.4491 9 42.4063C9 50.3634 16.2293 56.8125 23.4735 56.8125C30.7176 56.8125 34.2624 52.584 35.7583 50.5666C36.3157 49.815 36.8101 49.0754 37.2111 48.4433" stroke="white" stroke-width="3.2" stroke-linecap="square" stroke-linejoin="round"/>
<path d="M43.0166 42.4063L52.4646 52.4665C55.068 55.2384 58.7113 56.8125 62.5258 56.8125C70.52 56.8125 76.9993 50.3634 76.9993 42.4063C76.9993 34.4491 70.52 28 62.5258 28C58.7113 28 55.068 29.5741 52.4646 32.346L48.5667 36.2258" stroke="white" stroke-width="3.2" stroke-linecap="square" stroke-linejoin="round"/>
<path d="M30.9462 48.7089L37.663 46.9154L39.4787 53.6684" stroke="white" stroke-width="3.2" stroke-linecap="square"/>
</svg>
