<svg width="85" height="85" viewBox="0 0 85 85" fill="none" xmlns="http://www.w3.org/2000/svg">
<path d="M26.5631 39.6155C32.532 39.6155 37.3708 34.7767 37.3708 28.8077C37.3708 22.8388 32.532 18 26.5631 18C20.5942 18 15.7554 22.8388 15.7554 28.8077C15.7554 34.7767 20.5942 39.6155 26.5631 39.6155Z" stroke="white" stroke-width="3.2" stroke-linecap="round" stroke-linejoin="round"/>
<path d="M59.3692 39.6155C65.3382 39.6155 70.177 34.7767 70.177 28.8077C70.177 22.8388 65.3382 18 59.3692 18C53.4003 18 48.5615 22.8388 48.5615 28.8077C48.5615 34.7767 53.4003 39.6155 59.3692 39.6155Z" stroke="white" stroke-width="3.2" stroke-linecap="round" stroke-linejoin="round"/>
<path d="M6 65.3159V65.3087C6 56.3976 11.6102 49.2419 20.087 46.4911C22.1356 45.8251 24.3254 45.4668 26.5948 45.4668C36.6931 45.4668 45.1264 52.5645 47.1932 62.0439C47.1932 64.7947 44.5437 66.9266 41.659 66.029C39.9397 65.4933 38.8069 63.8464 38.8069 62.0439C40.8736 52.5682 49.3069 45.4668 59.4052 45.4668C61.6783 45.4668 63.8644 45.8251 65.913 46.4911C74.3898 49.2419 80 56.3939 80 65.3087V65.3159" stroke="white" stroke-width="3.2" stroke-linejoin="round"/>
</svg>
